# xmcd CD database file
#
# Track frame offsets:
#	150
#	17079
#	26722
#	50716
#	71254
#	80591
#	94873
#	116159
#	127426
#	140441
#	153066
#	168324
#	176533
#	188078
#	201433
#	216661
#	231458
#	243791
#	257799
#	283632
#
# Disc length: 4047 seconds
#
# Revision: 1
# Processed by: cddbd v1.5.2PL0 Copyright (c) Steve Scherf et al.
# Submitted via: CDex 1.70beta2
#
DISCID=2e0fcd14
DTITLE=Dillabough, Lyle [CDN-OVM-cty-02) Almonte. ON - Performs Hank Williams
DYEAR=2002
DGENRE=Country
TTITLE0=Two Different Worlds
TTITLE1=Hey Good Lookin'
TTITLE2=Mansion On The Hill
TTITLE3=Singing Waterfall - Blue Love
TTITLE4=Move It On Over
TTITLE5=Weary Blues From Waiting
TTITLE6=Whe God Comes and Gathers His Jewels - I Saw The Light
TTITLE7=Jambalaya
TTITLE8=Take These Chains
TTITLE9=I'm So Lonesome I Could Cry
TTITLE10=I Can't Help It - You Win Again
TTITLE11=Wait For The Light To Shine
TTITLE12=May You Never Be Alone
TTITLE13=Kawliga
TTITLE14=Your Cheatin' Heart
TTITLE15=Long Gone Lonesome Blues - Honky Tonkin'
TTITLE16=Cold Cold Heart
TTITLE17=I Told A Lie To My Heart
TTITLE18=Let's Turn Back The Years
TTITLE19=They'll Never Take Her Love From Me
EXTD=YEAR: 2002
EXTT0=
EXTT1=
EXTT2=
EXTT3=
EXTT4=
EXTT5=
EXTT6=
EXTT7=
EXTT8=
EXTT9=
EXTT10=
EXTT11=
EXTT12=
EXTT13=
EXTT14=
EXTT15=
EXTT16=
EXTT17=
EXTT18=
EXTT19=
PLAYORDER=
